<svg xmlns="http://www.w3.org/2000/svg" xmlns:xlink="http://www.w3.org/1999/xlink" width="768" viewBox="0 0 768 82.5" height="82.5" version="1.0"><defs><clipPath id="b"><path d="M 127 56 L 147 56 L 147 81.996094 L 127 81.996094 Z M 127 56"/></clipPath><clipPath id="c"><path d="M 126 56 L 147 56 L 147 81.996094 L 126 81.996094 Z M 126 56"/></clipPath><clipPath id="d"><path d="M 146 68 L 157 68 L 157 81.996094 L 146 81.996094 Z M 146 68"/></clipPath><clipPath id="e"><path d="M 145 67 L 157 67 L 157 81.996094 L 145 81.996094 Z M 145 67"/></clipPath><clipPath id="f"><path d="M 117 68 L 128 68 L 128 81.996094 L 117 81.996094 Z M 117 68"/></clipPath><clipPath id="g"><path d="M 116 67 L 128 67 L 128 81.996094 L 116 81.996094 Z M 116 67"/></clipPath><clipPath id="h"><path d="M 141 40 L 215 40 L 215 81.996094 L 141 81.996094 Z M 141 40"/></clipPath><clipPath id="i"><path d="M 141 39 L 216 39 L 216 81.996094 L 141 81.996094 Z M 141 39"/></clipPath><clipPath id="j"><path d="M 200 40 L 215 40 L 215 81.996094 L 200 81.996094 Z M 200 40"/></clipPath><clipPath id="k"><path d="M 200 39 L 216 39 L 216 81.996094 L 200 81.996094 Z M 200 39"/></clipPath><clipPath id="l"><path d="M 163 57 L 179 57 L 179 81.996094 L 163 81.996094 Z M 163 57"/></clipPath><clipPath id="m"><path d="M 163 56 L 179 56 L 179 81.996094 L 163 81.996094 Z M 163 56"/></clipPath><clipPath id="n"><path d="M 2.3125 80 L 765.6875 80 L 765.6875 81.996094 L 2.3125 81.996094 Z M 2.3125 80"/></clipPath><clipPath id="o"><path d="M 577 65 L 580 65 L 580 81.996094 L 577 81.996094 Z M 577 65"/></clipPath><clipPath id="p"><path d="M 551 68 L 553 68 L 553 81.996094 L 551 81.996094 Z M 551 68"/></clipPath><clipPath id="q"><path d="M 697 8 L 725 8 L 725 81.996094 L 697 81.996094 Z M 697 8"/></clipPath><clipPath id="r"><path d="M 696 8 L 726 8 L 726 81.996094 L 696 81.996094 Z M 696 8"/></clipPath><clipPath id="s"><path d="M 724 8 L 733 8 L 733 81.996094 L 724 81.996094 Z M 724 8"/></clipPath><clipPath id="t"><path d="M 724 8 L 734 8 L 734 81.996094 L 724 81.996094 Z M 724 8"/></clipPath><clipPath id="u"><path d="M 703 16 L 719 16 L 719 81.996094 L 703 81.996094 Z M 703 16"/></clipPath><clipPath id="v"><path d="M 702 15 L 720 15 L 720 81.996094 L 702 81.996094 Z M 702 15"/></clipPath><clipPath id="w"><path d="M 706 64 L 716 64 L 716 81.996094 L 706 81.996094 Z M 706 64"/></clipPath><clipPath id="x"><path d="M 705 63 L 716 63 L 716 81.996094 L 705 81.996094 Z M 705 63"/></clipPath><clipPath id="y"><path d="M 595 56 L 670 56 L 670 81.996094 L 595 81.996094 Z M 595 56"/></clipPath><clipPath id="z"><path d="M 669 56 L 681 56 L 681 81.996094 L 669 81.996094 Z M 669 56"/></clipPath><clipPath id="A"><path d="M 668 56 L 681 56 L 681 81.996094 L 668 81.996094 Z M 668 56"/></clipPath><clipPath id="B"><path d="M 219 56 L 240 56 L 240 81.996094 L 219 81.996094 Z M 219 56"/></clipPath><clipPath id="C"><path d="M 239 68 L 250 68 L 250 81.996094 L 239 81.996094 Z M 239 68"/></clipPath><clipPath id="D"><path d="M 238 67 L 250 67 L 250 81.996094 L 238 81.996094 Z M 238 67"/></clipPath><clipPath id="E"><path d="M 210 68 L 220 68 L 220 81.996094 L 210 81.996094 Z M 210 68"/></clipPath><clipPath id="F"><path d="M 209 67 L 221 67 L 221 81.996094 L 209 81.996094 Z M 209 67"/></clipPath><clipPath id="G"><path d="M 24 66 L 39 66 L 39 81.996094 L 24 81.996094 Z M 24 66"/></clipPath><clipPath id="H"><path d="M 23 65 L 40 65 L 40 81.996094 L 23 81.996094 Z M 23 65"/></clipPath><clipPath id="I"><path d="M 52 56 L 63 56 L 63 81.996094 L 52 81.996094 Z M 52 56"/></clipPath><clipPath id="J"><path d="M 52 56 L 64 56 L 64 81.996094 L 52 81.996094 Z M 52 56"/></clipPath><clipPath id="K"><path d="M 38 56 L 53 56 L 53 81.996094 L 38 81.996094 Z M 38 56"/></clipPath><clipPath id="L"><path d="M 37 56 L 54 56 L 54 81.996094 L 37 81.996094 Z M 37 56"/></clipPath><clipPath id="M"><path d="M 57 66 L 72 66 L 72 81.996094 L 57 81.996094 Z M 57 66"/></clipPath><clipPath id="N"><path d="M 56 65 L 73 65 L 73 81.996094 L 56 81.996094 Z M 56 65"/></clipPath><clipPath id="O"><path d="M 71 66 L 81 66 L 81 81.996094 L 71 81.996094 Z M 71 66"/></clipPath><clipPath id="P"><path d="M 71 65 L 82 65 L 82 81.996094 L 71 81.996094 Z M 71 65"/></clipPath><clipPath id="R"><path d="M0 0H26V8H0z"/></clipPath><clipPath id="U"><path d="M 0.210938 1 L 22 1 L 22 8 L 0.210938 8 Z M 0.210938 1"/></clipPath><clipPath id="V"><path d="M 12 1 L 34.324219 1 L 34.324219 8 L 12 8 Z M 12 1"/></clipPath><clipPath id="T"><path d="M0 0H35V9H0z"/></clipPath><mask id="Q"><g filter="url(#a)"><path fill-opacity=".247" d="M-76.8 -8.25H844.8000000000001V90.75H-76.8z"/></g></mask><mask id="S"><g filter="url(#a)"><path fill-opacity=".498" d="M-76.8 -8.25H844.8000000000001V90.75H-76.8z"/></g></mask><filter x="0%" y="0%" width="100%" xmlns:xlink="http://www.w3.org/1999/xlink" xlink:type="simple" xlink:actuate="onLoad" height="100%" id="a" xlink:show="other"><feColorMatrix values="0 0 0 0 1 0 0 0 0 1 0 0 0 0 1 0 0 0 1 0" color-interpolation-filters="sRGB"/></filter></defs><g clip-path="url(#b)"><path fill="#D2D4F8" d="M 136.6875 56.632812 C 136.054688 56.632812 135.425781 56.695312 134.804688 56.820312 C 134.183594 56.941406 133.578125 57.125 132.992188 57.367188 C 132.40625 57.609375 131.851562 57.910156 131.324219 58.261719 C 130.796875 58.613281 130.308594 59.011719 129.859375 59.460938 C 129.414062 59.910156 129.011719 60.398438 128.660156 60.925781 C 128.308594 61.453125 128.011719 62.007812 127.769531 62.59375 C 127.523438 63.179688 127.34375 63.785156 127.21875 64.40625 C 127.09375 65.027344 127.03125 65.65625 127.03125 66.289062 L 127.03125 81.246094 L 146.34375 81.246094 L 146.34375 66.289062 C 146.34375 65.65625 146.28125 65.027344 146.15625 64.40625 C 146.03125 63.785156 145.847656 63.179688 145.605469 62.59375 C 145.363281 62.007812 145.066406 61.453125 144.714844 60.925781 C 144.363281 60.398438 143.960938 59.910156 143.515625 59.460938 C 143.066406 59.011719 142.578125 58.613281 142.050781 58.261719 C 141.523438 57.910156 140.96875 57.609375 140.382812 57.367188 C 139.796875 57.125 139.191406 56.941406 138.570312 56.820312 C 137.949219 56.695312 137.320312 56.632812 136.6875 56.632812 Z M 136.6875 56.632812"/></g><g clip-path="url(#c)"><path stroke-linecap="round" transform="matrix(1.25701 0 0 1.25701 2.942 -42.227)" fill="none" stroke-linejoin="round" d="M 106.399535 78.646253 C 105.89611 78.646253 105.395793 78.695974 104.90169 78.795416 C 104.407588 78.891751 103.925916 79.037806 103.459781 79.230475 C 102.993647 79.423144 102.552373 79.662426 102.132852 79.942107 C 101.713331 80.221787 101.324886 80.538759 100.967516 80.896128 C 100.613254 81.253498 100.293175 81.641943 100.013495 82.061464 C 99.733814 82.480985 99.497639 82.922259 99.304971 83.388393 C 99.109194 83.854528 98.966246 84.3362 98.866804 84.830302 C 98.767362 85.324405 98.717641 85.824722 98.717641 86.328147 L 98.717641 98.227003 L 114.081429 98.227003 L 114.081429 86.328147 C 114.081429 85.824722 114.031708 85.324405 113.932266 84.830302 C 113.832824 84.3362 113.686769 83.854528 113.4941 83.388393 C 113.301431 82.922259 113.065256 82.480985 112.785576 82.061464 C 112.505895 81.641943 112.185816 81.253498 111.831554 80.896128 C 111.474185 80.538759 111.085739 80.221787 110.666218 79.942107 C 110.246697 79.662426 109.805424 79.423144 109.339289 79.230475 C 108.873155 79.037806 108.391483 78.891751 107.89738 78.795416 C 107.403278 78.695974 106.90296 78.646253 106.399535 78.646253 Z M 106.399535 78.646253" stroke="#394599"/></g><g clip-path="url(#d)"><path fill="#FFF" d="M 151.304688 68.597656 C 150.980469 68.597656 150.65625 68.628906 150.335938 68.695312 C 150.015625 68.757812 149.707031 68.851562 149.40625 68.976562 C 149.105469 69.101562 148.820312 69.253906 148.546875 69.433594 C 148.277344 69.617188 148.027344 69.820312 147.796875 70.050781 C 147.566406 70.28125 147.359375 70.53125 147.179688 70.804688 C 146.996094 71.074219 146.84375 71.359375 146.71875 71.660156 C 146.59375 71.960938 146.5 72.273438 146.4375 72.59375 C 146.375 72.914062 146.34375 73.234375 146.34375 73.5625 L 146.34375 81.25 L 156.273438 81.25 L 156.273438 73.558594 C 156.273438 73.234375 156.242188 72.910156 156.175781 72.589844 C 156.113281 72.269531 156.019531 71.960938 155.894531 71.660156 C 155.769531 71.359375 155.617188 71.074219 155.433594 70.800781 C 155.253906 70.53125 155.046875 70.28125 154.816406 70.050781 C 154.585938 69.820312 154.335938 69.613281 154.0625 69.433594 C 153.792969 69.25 153.507812 69.097656 153.203125 68.972656 C 152.902344 68.851562 152.59375 68.753906 152.273438 68.691406 C 151.953125 68.628906 151.628906 68.597656 151.304688 68.597656 Z M 151.304688 68.597656"/></g><g clip-path="url(#e)"><path stroke-linecap="round" transform="matrix(1.25701 0 0 1.25701 2.942 -42.227)" fill="none" stroke-linejoin="round" d="M 118.028033 88.164716 C 117.770106 88.164716 117.512178 88.189577 117.257358 88.242406 C 117.002538 88.292127 116.757041 88.366708 116.517758 88.46615 C 116.278476 88.565592 116.051624 88.686787 115.834094 88.829735 C 115.619673 88.97579 115.420789 89.137383 115.237443 89.32073 C 115.054096 89.504076 114.889396 89.70296 114.746448 89.920489 C 114.600392 90.134911 114.479197 90.361763 114.379755 90.601045 C 114.280313 90.840328 114.205732 91.088933 114.156011 91.343753 C 114.10629 91.598573 114.081429 91.853393 114.081429 92.114428 L 114.081429 98.230111 L 121.980853 98.230111 L 121.980853 92.111321 C 121.980853 91.853393 121.955992 91.595465 121.903164 91.340645 C 121.853443 91.085825 121.778861 90.840328 121.679419 90.601045 C 121.579977 90.361763 121.458782 90.134911 121.312727 89.917382 C 121.169779 89.70296 121.005078 89.504076 120.821732 89.32073 C 120.638386 89.137383 120.439502 88.972683 120.221972 88.829735 C 120.007551 88.683679 119.780699 88.562484 119.538309 88.463042 C 119.299026 88.366708 119.053529 88.289019 118.798709 88.239298 C 118.543889 88.189577 118.285961 88.164716 118.028033 88.164716 Z M 118.028033 88.164716" stroke="#394599"/></g><g clip-path="url(#f)"><path fill="#FFF" d="M 122.070312 68.597656 C 121.746094 68.597656 121.421875 68.628906 121.101562 68.695312 C 120.785156 68.757812 120.472656 68.851562 120.171875 68.976562 C 119.871094 69.101562 119.585938 69.253906 119.3125 69.433594 C 119.042969 69.617188 118.792969 69.820312 118.5625 70.050781 C 118.332031 70.28125 118.125 70.53125 117.945312 70.804688 C 117.765625 71.074219 117.609375 71.359375 117.488281 71.660156 C 117.363281 71.960938 117.269531 72.273438 117.203125 72.59375 C 117.140625 72.914062 117.109375 73.234375 117.109375 73.5625 L 117.109375 81.25 L 127.039062 81.25 L 127.039062 73.558594 C 127.039062 73.234375 127.007812 72.910156 126.945312 72.589844 C 126.878906 72.269531 126.785156 71.960938 126.660156 71.660156 C 126.535156 71.359375 126.382812 71.074219 126.203125 70.800781 C 126.019531 70.53125 125.8125 70.28125 125.582031 70.050781 C 125.351562 69.820312 125.101562 69.613281 124.832031 69.433594 C 124.558594 69.25 124.273438 69.097656 123.972656 68.972656 C 123.671875 68.851562 123.359375 68.753906 123.039062 68.691406 C 122.71875 68.628906 122.398438 68.597656 122.070312 68.597656 Z M 122.070312 68.597656"/></g><g clip-path="url(#g)"><path stroke-linecap="round" transform="matrix(1.25701 0 0 1.25701 2.942 -42.227)" fill="none" stroke-linejoin="round" d="M 94.771037 88.164716 C 94.51311 88.164716 94.255182 88.189577 94.000362 88.242406 C 93.748649 88.292127 93.500044 88.366708 93.260762 88.46615 C 93.02148 88.565592 92.794628 88.686787 92.577098 88.829735 C 92.362676 88.97579 92.163792 89.137383 91.980446 89.32073 C 91.7971 89.504076 91.632399 89.70296 91.489451 89.920489 C 91.346504 90.134911 91.222201 90.361763 91.125867 90.601045 C 91.026425 90.840328 90.951843 91.088933 90.899015 91.343753 C 90.849294 91.598573 90.824433 91.853393 90.824433 92.114428 L 90.824433 98.230111 L 98.723856 98.230111 L 98.723856 92.111321 C 98.723856 91.853393 98.698996 91.595465 98.649275 91.340645 C 98.596446 91.085825 98.521865 90.840328 98.422423 90.601045 C 98.322981 90.361763 98.201786 90.134911 98.058838 89.917382 C 97.912783 89.70296 97.748082 89.504076 97.564736 89.32073 C 97.38139 89.137383 97.182506 88.972683 96.968084 88.829735 C 96.750554 88.683679 96.523702 88.562484 96.28442 88.463042 C 96.045138 88.366708 95.796533 88.289019 95.541713 88.239298 C 95.286893 88.189577 95.032072 88.164716 94.771037 88.164716 Z M 94.771037 88.164716" stroke="#394599"/></g><g clip-path="url(#h)"><path fill="#FFF" d="M 141.648438 40.503906 L 214.871094 40.503906 L 214.871094 81.25 L 141.648438 81.25 Z M 141.648438 40.503906"/></g><g clip-path="url(#i)"><path stroke-linecap="round" transform="matrix(1.25701 0 0 1.25701 2.313 -42.5)" fill="none" stroke-linejoin="round" d="M 110.846139 66.032127 L 169.097395 66.032127 L 169.097395 98.447109 L 110.846139 98.447109 Z M 110.846139 66.032127" stroke="#394599"/></g><g clip-path="url(#j)"><path fill="#D2D4F8" d="M 200.921875 40.503906 L 214.871094 40.503906 L 214.871094 81.367188 L 200.921875 81.367188 Z M 200.921875 40.503906"/></g><g clip-path="url(#k)"><path stroke-linecap="round" transform="matrix(1.25701 0 0 1.25701 2.313 -42.5)" fill="none" stroke-linejoin="round" d="M 158.00029 66.032127 L 169.097395 66.032127 L 169.097395 98.540336 L 158.00029 98.540336 Z M 158.00029 66.032127" stroke="#394599"/></g><g clip-path="url(#l)"><path fill="#D2D4F8" d="M 163.960938 57.417969 L 178.261719 57.417969 L 178.261719 81.363281 L 163.960938 81.363281 Z M 163.960938 57.417969"/></g><g clip-path="url(#m)"><path stroke-linecap="round" transform="matrix(1.25701 0 0 1.25701 2.313 -42.5)" fill="none" stroke-linejoin="round" d="M 128.596535 79.487872 L 139.973321 79.487872 L 139.973321 98.537228 L 128.596535 98.537228 Z M 128.596535 79.487872" stroke="#394599"/></g><g clip-path="url(#n)"><path stroke-linecap="round" transform="matrix(1.25701 0 0 1.25701 2.313 -42.5)" fill="none" stroke-linejoin="round" d="M 0.49971 98.537228 L 606.79133 98.537228" stroke="#394599"/></g><path stroke-linecap="round" transform="matrix(1.25701 0 0 1.25701 2.313 -42.5)" fill="#FFF" stroke-linejoin="round" d="M 466.702421 81.321333 C 466.702421 81.871372 466.649593 82.418303 466.540828 82.955911 C 466.432064 83.496627 466.273578 84.021805 466.065371 84.528338 C 465.854057 85.037978 465.596129 85.51965 465.288481 85.976462 C 464.98394 86.436381 464.635893 86.859009 464.247447 87.247455 C 463.859002 87.6359 463.436374 87.983947 462.976454 88.288488 C 462.519643 88.596137 462.03797 88.854064 461.52833 89.065379 C 461.021798 89.273585 460.49662 89.432071 459.955904 89.540836 C 459.418295 89.6496 458.871364 89.702429 458.321326 89.702429 C 457.771287 89.702429 457.227464 89.6496 456.686748 89.540836 C 456.146032 89.432071 455.623962 89.273585 455.114322 89.065379 C 454.607789 88.854064 454.123009 88.596137 453.666198 88.288488 C 453.209386 87.983947 452.786757 87.6359 452.395205 87.247455 C 452.006759 86.859009 451.658712 86.436381 451.354171 85.976462 C 451.04963 85.51965 450.791702 85.037978 450.580388 84.528338 C 450.369074 84.021805 450.210588 83.496627 450.101824 82.955911 C 449.996167 82.418303 449.943338 81.871372 449.943338 81.321333 C 449.943338 80.771295 449.996167 80.227471 450.101824 79.686756 C 450.210588 79.14604 450.369074 78.623969 450.580388 78.114329 C 450.791702 77.607796 451.04963 77.123017 451.354171 76.666205 C 451.658712 76.209393 452.006759 75.786765 452.395205 75.395212 C 452.786757 75.006767 453.209386 74.65872 453.666198 74.354179 C 454.123009 74.049637 454.607789 73.79171 455.114322 73.580396 C 455.623962 73.369081 456.146032 73.210596 456.686748 73.101831 C 457.227464 72.996174 457.771287 72.943345 458.321326 72.943345 C 458.871364 72.943345 459.418295 72.996174 459.955904 73.101831 C 460.49662 73.210596 461.021798 73.369081 461.52833 73.580396 C 462.03797 73.79171 462.519643 74.049637 462.976454 74.354179 C 463.436374 74.65872 463.859002 75.006767 464.247447 75.395212 C 464.635893 75.786765 464.98394 76.209393 465.288481 76.666205 C 465.596129 77.123017 465.854057 77.607796 466.065371 78.114329 C 466.273578 78.623969 466.432064 79.14604 466.540828 79.686756 C 466.649593 80.227471 466.702421 80.771295 466.702421 81.321333 Z M 466.702421 81.321333" stroke="#394599"/><g clip-path="url(#o)"><path stroke-linecap="round" transform="matrix(1.25701 0 0 1.25701 2.313 -42.5)" fill="none" stroke-linejoin="round" d="M 458.321326 98.447109 L 458.321326 86.78132" stroke="#394599"/></g><path stroke-linecap="round" transform="matrix(1.25701 0 0 1.25701 2.313 -42.5)" fill="#FFF" stroke-linejoin="round" d="M 443.917775 84.711684 C 443.917775 85.152958 443.877376 85.588016 443.790365 86.023075 C 443.703353 86.455026 443.575943 86.874547 443.408134 87.284745 C 443.237219 87.691836 443.032119 88.077174 442.786622 88.446974 C 442.541125 88.813666 442.261444 89.15239 441.950688 89.463147 C 441.636824 89.77701 441.2981 90.053583 440.931407 90.299081 C 440.564715 90.544578 440.17627 90.752785 439.769179 90.920593 C 439.362088 91.091509 438.942567 91.218919 438.507509 91.302823 C 438.075558 91.389835 437.637391 91.433341 437.196117 91.433341 C 436.754844 91.433341 436.319785 91.389835 435.884726 91.302823 C 435.452775 91.218919 435.033254 91.091509 434.623056 90.920593 C 434.215965 90.752785 433.830627 90.544578 433.460828 90.299081 C 433.094135 90.053583 432.755411 89.77701 432.444655 89.463147 C 432.130791 89.15239 431.854218 88.813666 431.60872 88.446974 C 431.363223 88.077174 431.155016 87.691836 430.987208 87.284745 C 430.816292 86.874547 430.688882 86.455026 430.604978 86.023075 C 430.517966 85.588016 430.47446 85.152958 430.47446 84.711684 C 430.47446 84.27041 430.517966 83.832244 430.604978 83.400292 C 430.688882 82.965234 430.816292 82.545713 430.987208 82.138622 C 431.155016 81.731532 431.363223 81.343086 431.60872 80.976394 C 431.854218 80.609702 432.130791 80.270977 432.444655 79.957113 C 432.755411 79.646357 433.094135 79.366677 433.463935 79.121179 C 433.830627 78.875682 434.215965 78.670583 434.623056 78.499667 C 435.033254 78.331858 435.452775 78.204448 435.884726 78.117437 C 436.319785 78.033532 436.754844 77.990026 437.196117 77.990026 C 437.637391 77.990026 438.075558 78.033532 438.507509 78.117437 C 438.942567 78.204448 439.362088 78.331858 439.769179 78.499667 C 440.17627 78.670583 440.564715 78.875682 440.931407 79.121179 C 441.2981 79.366677 441.636824 79.646357 441.950688 79.957113 C 442.261444 80.270977 442.541125 80.609702 442.786622 80.976394 C 443.032119 81.343086 443.237219 81.731532 443.408134 82.138622 C 443.575943 82.545713 443.703353 82.965234 443.790365 83.400292 C 443.877376 83.832244 443.917775 84.27041 443.917775 84.711684 Z M 443.917775 84.711684" stroke="#394599"/><g clip-path="url(#p)"><path stroke-linecap="round" transform="matrix(1.25701 0 0 1.25701 2.313 -42.5)" fill="none" stroke-linejoin="round" d="M 437.196117 98.447109 L 437.196117 89.090239" stroke="#394599"/></g><path stroke-linecap="round" transform="matrix(1.25701 0 0 1.25701 2.313 -42.5)" fill="#D2D4F8" stroke-linejoin="round" d="M 144.929883 73.362866 L 150.598076 73.362866 L 150.598076 78.863252 L 144.929883 78.863252 Z M 144.929883 73.362866" stroke="#394599"/><path stroke-linecap="round" transform="matrix(1.25701 0 0 1.25701 2.313 -42.5)" fill="#D2D4F8" stroke-linejoin="round" d="M 116.930746 73.362866 L 122.59894 73.362866 L 122.59894 78.863252 L 116.930746 78.863252 Z M 116.930746 73.362866" stroke="#394599"/><g clip-path="url(#q)"><path fill="#FFF" d="M 697.230469 8.996094 L 724.6875 8.996094 L 724.6875 81.25 L 697.230469 81.25 Z M 697.230469 8.996094"/></g><g clip-path="url(#r)"><path stroke-linecap="round" transform="matrix(1.25701 0 0 1.25701 2.313 -42.5)" fill="none" stroke-linejoin="round" d="M 552.831618 40.966529 L 574.674674 40.966529 L 574.674674 98.447109 L 552.831618 98.447109 Z M 552.831618 40.966529" stroke="#394599"/></g><g clip-path="url(#s)"><path fill="#D2D4F8" d="M 724.6875 8.996094 L 732.488281 8.996094 L 732.488281 81.25 L 724.6875 81.25 Z M 724.6875 8.996094"/></g><g clip-path="url(#t)"><path stroke-linecap="round" transform="matrix(1.25701 0 0 1.25701 2.313 -42.5)" fill="none" stroke-linejoin="round" d="M 574.674674 40.966529 L 580.880476 40.966529 L 580.880476 98.447109 L 574.674674 98.447109 Z M 574.674674 40.966529" stroke="#394599"/></g><g clip-path="url(#u)"><path fill="#FFF" d="M 703.15625 16.199219 L 718.761719 16.199219 L 718.761719 81.25 L 703.15625 81.25 Z M 703.15625 16.199219"/></g><g clip-path="url(#v)"><path stroke-linecap="round" transform="matrix(1.25701 0 0 1.25701 2.313 -42.5)" fill="none" stroke-linejoin="round" d="M 557.54579 46.696874 L 569.960502 46.696874 L 569.960502 98.447109 L 557.54579 98.447109 Z M 557.54579 46.696874" stroke="#394599"/></g><g clip-path="url(#w)"><path fill="#FFF" d="M 706.570312 64.175781 L 715.347656 64.175781 L 715.347656 81.25 L 706.570312 81.25 Z M 706.570312 64.175781"/></g><g clip-path="url(#x)"><path stroke-linecap="round" transform="matrix(1.25701 0 0 1.25701 2.313 -42.5)" fill="none" stroke-linejoin="round" d="M 560.2618 84.863954 L 567.244492 84.863954 L 567.244492 98.447109 L 560.2618 98.447109 Z M 560.2618 84.863954" stroke="#394599"/></g><path stroke-linecap="round" transform="matrix(1.25701 0 0 1.25701 2.313 -42.5)" fill="#FFF" stroke-linejoin="round" d="M 561.622912 37.38351 L 566.122662 37.38351 L 566.122662 40.966529 L 561.622912 40.966529 Z M 561.622912 37.38351" stroke="#394599"/><path stroke-linecap="round" transform="matrix(1.25701 0 0 1.25701 2.313 -42.5)" fill="#D2D4F8" stroke-linejoin="round" d="M 566.122662 37.38351 L 570.14074 37.38351 L 570.14074 40.966529 L 566.122662 40.966529 Z M 566.122662 37.38351" stroke="#394599"/><g clip-path="url(#y)"><path stroke-linecap="round" transform="matrix(1.25701 0 0 1.25701 2.313 -42.5)" fill="none" stroke-linejoin="round" d="M 472.790136 78.863252 L 530.45717 78.863252 L 530.45717 98.447109 L 472.790136 98.447109 Z M 472.790136 78.863252" stroke="#394599"/></g><g clip-path="url(#z)"><path fill="#D2D4F8" d="M 669.105469 56.632812 L 680.105469 56.632812 L 680.105469 81.25 L 669.105469 81.25 Z M 669.105469 56.632812"/></g><g clip-path="url(#A)"><path stroke-linecap="round" transform="matrix(1.25701 0 0 1.25701 2.313 -42.5)" fill="none" stroke-linejoin="round" d="M 530.45717 78.863252 L 539.208065 78.863252 L 539.208065 98.447109 L 530.45717 98.447109 Z M 530.45717 78.863252" stroke="#394599"/></g><path stroke-linecap="round" transform="matrix(1.25701 0 0 1.25701 2.313 -42.5)" fill="#D2D4F8" stroke-linejoin="round" d="M 480.922627 82.834716 L 486.923329 82.834716 L 486.923329 89.562589 L 480.922627 89.562589 Z M 480.922627 82.834716" stroke="#394599"/><path stroke-linecap="round" transform="matrix(1.25701 0 0 1.25701 2.313 -42.5)" fill="#D2D4F8" stroke-linejoin="round" d="M 492.722041 82.834716 L 498.722743 82.834716 L 498.722743 89.562589 L 492.722041 89.562589 Z M 492.722041 82.834716" stroke="#394599"/><path stroke-linecap="round" transform="matrix(1.25701 0 0 1.25701 2.313 -42.5)" fill="#D2D4F8" stroke-linejoin="round" d="M 504.524562 82.834716 L 510.525265 82.834716 L 510.525265 89.562589 L 504.524562 89.562589 Z M 504.524562 82.834716" stroke="#394599"/><path stroke-linecap="round" transform="matrix(1.25701 0 0 1.25701 2.313 -42.5)" fill="#D2D4F8" stroke-linejoin="round" d="M 516.327084 82.834716 L 522.324679 82.834716 L 522.324679 89.562589 L 516.327084 89.562589 Z M 516.327084 82.834716" stroke="#394599"/><path stroke-linecap="round" transform="matrix(1.25701 0 0 1.25701 2.313 -42.5)" fill="none" stroke-linejoin="round" d="M 477.942474 74.375932 L 525.304831 74.375932 L 525.304831 78.863252 L 477.942474 78.863252 Z M 477.942474 74.375932" stroke="#394599"/><path stroke-linecap="round" transform="matrix(1.25701 0 0 1.25701 2.313 -42.5)" fill="#D2D4F8" stroke-linejoin="round" d="M 525.304831 74.375932 L 531.780991 74.375932 L 531.780991 78.863252 L 525.304831 78.863252 Z M 525.304831 74.375932" stroke="#394599"/><g clip-path="url(#B)"><path stroke-linecap="round" transform="matrix(1.25701 0 0 1.25701 2.942 -42.227)" fill="#FFF" stroke-linejoin="round" d="M 180.300474 78.646253 C 179.797049 78.646253 179.296732 78.695974 178.802629 78.795416 C 178.305419 78.891751 177.826855 79.037806 177.360721 79.230475 C 176.894586 79.423144 176.453312 79.662426 176.033791 79.942107 C 175.614271 80.221787 175.225825 80.538759 174.868456 80.896128 C 174.511086 81.253498 174.194115 81.641943 173.914434 82.061464 C 173.634753 82.480985 173.395471 82.922259 173.202802 83.388393 C 173.010133 83.854528 172.864078 84.3362 172.767743 84.830302 C 172.668301 85.324405 172.61858 85.824722 172.61858 86.328147 L 172.61858 98.227003 L 187.979261 98.227003 L 187.979261 86.328147 C 187.979261 85.824722 187.92954 85.324405 187.833206 84.830302 C 187.733764 84.3362 187.587708 83.854528 187.395039 83.388393 C 187.20237 82.922259 186.966196 82.480985 186.686515 82.061464 C 186.403727 81.641943 186.086755 81.253498 185.729386 80.896128 C 185.375124 80.538759 184.986678 80.221787 184.567158 79.942107 C 184.147637 79.662426 183.703255 79.423144 183.240228 79.230475 C 182.774094 79.037806 182.292422 78.891751 181.79832 78.795416 C 181.304217 78.695974 180.8039 78.646253 180.300474 78.646253 Z M 180.300474 78.646253" stroke="#394599"/></g><g clip-path="url(#C)"><path fill="#FFF" d="M 244.195312 68.597656 C 243.871094 68.597656 243.546875 68.628906 243.226562 68.691406 C 242.910156 68.757812 242.597656 68.851562 242.296875 68.976562 C 241.996094 69.101562 241.710938 69.253906 241.4375 69.433594 C 241.167969 69.613281 240.917969 69.820312 240.6875 70.050781 C 240.457031 70.28125 240.25 70.53125 240.070312 70.804688 C 239.890625 71.074219 239.734375 71.359375 239.613281 71.660156 C 239.488281 71.960938 239.394531 72.273438 239.328125 72.59375 C 239.265625 72.910156 239.234375 73.234375 239.234375 73.5625 L 239.234375 81.25 L 249.164062 81.25 L 249.164062 73.558594 C 249.164062 73.234375 249.132812 72.910156 249.070312 72.589844 C 249.003906 72.269531 248.910156 71.960938 248.785156 71.660156 C 248.660156 71.359375 248.507812 71.074219 248.328125 70.800781 C 248.144531 70.53125 247.9375 70.28125 247.707031 70.050781 C 247.476562 69.820312 247.226562 69.613281 246.957031 69.433594 C 246.683594 69.25 246.398438 69.097656 246.097656 68.972656 C 245.796875 68.851562 245.484375 68.753906 245.164062 68.691406 C 244.84375 68.628906 244.523438 68.597656 244.195312 68.597656 Z M 244.195312 68.597656"/></g><g clip-path="url(#D)"><path stroke-linecap="round" transform="matrix(1.25701 0 0 1.25701 2.942 -42.227)" fill="none" stroke-linejoin="round" d="M 191.925865 88.164716 C 191.667937 88.164716 191.41001 88.189577 191.15519 88.239298 C 190.903477 88.292127 190.654872 88.366708 190.41559 88.46615 C 190.176307 88.565592 189.949455 88.686787 189.731926 88.829735 C 189.517504 88.972683 189.31862 89.137383 189.135274 89.32073 C 188.951928 89.504076 188.787227 89.70296 188.644279 89.920489 C 188.501331 90.134911 188.377029 90.361763 188.280694 90.601045 C 188.181252 90.840328 188.106671 91.088933 188.053842 91.343753 C 188.004121 91.595465 187.979261 91.853393 187.979261 92.114428 L 187.979261 98.230111 L 195.878684 98.230111 L 195.878684 92.111321 C 195.878684 91.853393 195.853824 91.595465 195.804103 91.340645 C 195.751274 91.085825 195.676693 90.840328 195.577251 90.601045 C 195.477809 90.361763 195.356614 90.134911 195.213666 89.917382 C 195.067611 89.70296 194.90291 89.504076 194.719564 89.32073 C 194.536217 89.137383 194.337333 88.972683 194.122912 88.829735 C 193.905382 88.683679 193.67853 88.562484 193.439248 88.463042 C 193.199966 88.366708 192.951361 88.289019 192.696541 88.239298 C 192.44172 88.189577 192.1869 88.164716 191.925865 88.164716 Z M 191.925865 88.164716" stroke="#394599"/></g><g clip-path="url(#E)"><path fill="#FFF" d="M 214.964844 68.597656 C 214.636719 68.597656 214.316406 68.628906 213.996094 68.695312 C 213.675781 68.757812 213.367188 68.851562 213.066406 68.976562 C 212.761719 69.101562 212.476562 69.253906 212.207031 69.433594 C 211.9375 69.617188 211.683594 69.820312 211.453125 70.050781 C 211.222656 70.28125 211.019531 70.53125 210.835938 70.804688 C 210.65625 71.074219 210.503906 71.359375 210.378906 71.660156 C 210.253906 71.960938 210.160156 72.273438 210.097656 72.59375 C 210.03125 72.914062 210 73.234375 210 73.5625 L 210 81.25 L 219.929688 81.25 L 219.929688 73.558594 C 219.929688 73.234375 219.898438 72.910156 219.835938 72.589844 C 219.773438 72.269531 219.675781 71.960938 219.550781 71.660156 C 219.429688 71.359375 219.273438 71.074219 219.09375 70.800781 C 218.914062 70.53125 218.707031 70.28125 218.476562 70.050781 C 218.246094 69.820312 217.992188 69.613281 217.722656 69.433594 C 217.453125 69.25 217.164062 69.097656 216.863281 68.972656 C 216.5625 68.851562 216.253906 68.753906 215.933594 68.691406 C 215.613281 68.628906 215.289062 68.597656 214.964844 68.597656 Z M 214.964844 68.597656"/></g><g clip-path="url(#F)"><path stroke-linecap="round" transform="matrix(1.25701 0 0 1.25701 2.942 -42.227)" fill="none" stroke-linejoin="round" d="M 168.671976 88.164716 C 168.410941 88.164716 168.156121 88.189577 167.901301 88.242406 C 167.646481 88.292127 167.400983 88.366708 167.161701 88.46615 C 166.919311 88.565592 166.692459 88.686787 166.478037 88.829735 C 166.263616 88.97579 166.061624 89.137383 165.878278 89.32073 C 165.694932 89.504076 165.533338 89.70296 165.387283 89.920489 C 165.244335 90.134911 165.12314 90.361763 165.023698 90.601045 C 164.924256 90.840328 164.849675 91.088933 164.799954 91.343753 C 164.747125 91.598573 164.722265 91.853393 164.722265 92.114428 L 164.722265 98.230111 L 172.621688 98.230111 L 172.621688 92.111321 C 172.621688 91.853393 172.596828 91.595465 172.547107 91.340645 C 172.497386 91.085825 172.419696 90.840328 172.320254 90.601045 C 172.22392 90.361763 172.099618 90.134911 171.95667 89.917382 C 171.813722 89.70296 171.649021 89.504076 171.465675 89.32073 C 171.282329 89.137383 171.080337 88.972683 170.865915 88.829735 C 170.651494 88.683679 170.421534 88.562484 170.182252 88.463042 C 169.942969 88.366708 169.697472 88.289019 169.442652 88.239298 C 169.187832 88.189577 168.929904 88.164716 168.671976 88.164716 Z M 168.671976 88.164716" stroke="#394599"/></g><g clip-path="url(#G)"><path fill="#FFF" d="M 24.257812 66.425781 L 38.503906 66.425781 L 38.503906 81.25 L 24.257812 81.25 Z M 24.257812 66.425781"/></g><g clip-path="url(#H)"><path stroke-linecap="round" transform="matrix(1.25701 0 0 1.25701 2.313 -42.5)" fill="none" stroke-linejoin="round" d="M 17.457677 86.65391 L 28.790957 86.65391 L 28.790957 98.447109 L 17.457677 98.447109 Z M 17.457677 86.65391" stroke="#394599"/></g><g clip-path="url(#I)"><path fill="#D2D4F8" d="M 52.75 56.632812 L 62.386719 56.632812 L 62.386719 81.25 L 52.75 81.25 Z M 52.75 56.632812"/></g><g clip-path="url(#J)"><path stroke-linecap="round" transform="matrix(1.25701 0 0 1.25701 2.313 -42.5)" fill="none" stroke-linejoin="round" d="M 40.124237 78.863252 L 47.790593 78.863252 L 47.790593 98.447109 L 40.124237 98.447109 Z M 40.124237 78.863252" stroke="#394599"/></g><g clip-path="url(#K)"><path fill="#FFF" d="M 38.503906 56.632812 L 52.75 56.632812 L 52.75 81.25 L 38.503906 81.25 Z M 38.503906 56.632812"/></g><g clip-path="url(#L)"><path stroke-linecap="round" transform="matrix(1.25701 0 0 1.25701 2.313 -42.5)" fill="none" stroke-linejoin="round" d="M 28.790957 78.863252 L 40.124237 78.863252 L 40.124237 98.447109 L 28.790957 98.447109 Z M 28.790957 78.863252" stroke="#394599"/></g><g clip-path="url(#M)"><path fill="#FFF" d="M 57.566406 66.425781 L 71.8125 66.425781 L 71.8125 81.25 L 57.566406 81.25 Z M 57.566406 66.425781"/></g><g clip-path="url(#N)"><path stroke-linecap="round" transform="matrix(1.25701 0 0 1.25701 2.313 -42.5)" fill="none" stroke-linejoin="round" d="M 43.955861 86.65391 L 55.289141 86.65391 L 55.289141 98.447109 L 43.955861 98.447109 Z M 43.955861 86.65391" stroke="#394599"/></g><g clip-path="url(#O)"><path fill="#D2D4F8" d="M 71.816406 66.425781 L 80.457031 66.425781 L 80.457031 81.25 L 71.816406 81.25 Z M 71.816406 66.425781"/></g><g clip-path="url(#P)"><path stroke-linecap="round" transform="matrix(1.25701 0 0 1.25701 2.313 -42.5)" fill="none" stroke-linejoin="round" d="M 55.292248 86.65391 L 62.166176 86.65391 L 62.166176 98.447109 L 55.292248 98.447109 Z M 55.292248 86.65391" stroke="#394599"/></g><path stroke-linecap="round" transform="matrix(1.25701 0 0 1.25701 2.313 -42.5)" fill="none" stroke-linejoin="round" d="M 32.622581 82.654478 L 32.622581 94.655883" stroke="#394599"/><path stroke-linecap="round" transform="matrix(1.25701 0 0 1.25701 2.313 -42.5)" fill="none" stroke-linejoin="round" d="M 36.289505 82.654478 L 36.289505 94.655883" stroke="#394599"/><g mask="url(#Q)"><g><g clip-path="url(#R)" stroke-linecap="round" fill="none" stroke-linejoin="round" stroke="#394599" stroke-width=".477" transform="translate(19 31)"><path transform="matrix(1.25701 0 0 1.25701 -16.058 -73.227)" d="M 16.510188 63.381903 L 31.83047 63.381903 C 31.83047 63.381903 24.170329 55.501125 16.510188 63.381903 Z M 16.510188 63.381903"/><path transform="matrix(1.25701 0 0 1.25701 -16.058 -73.227)" d="M 14.014816 63.381903 L 20.525159 63.381903 C 20.525159 63.381903 17.268433 60.035059 14.014816 63.381903 Z M 14.014816 63.381903"/></g></g></g><g mask="url(#S)"><g><g clip-path="url(#T)" transform="translate(567 11)"><g clip-path="url(#U)"><path stroke-linecap="round" transform="matrix(1.25701 0 0 1.25701 -564.058 -53.227)" fill="none" stroke-linejoin="round" d="M 449.325222 47.965291 L 465.91339 47.965291 C 465.91339 47.965291 457.619306 39.435032 449.325222 47.965291 Z M 449.325222 47.965291" stroke="#394599" stroke-width=".558"/></g><g clip-path="url(#V)"><path stroke-linecap="round" transform="matrix(1.25701 0 0 1.25701 -564.058 -53.227)" fill="none" stroke-linejoin="round" d="M 458.924482 47.965291 L 475.51265 47.965291 C 475.51265 47.965291 467.218566 39.435032 458.924482 47.965291 Z M 458.924482 47.965291" stroke="#394599" stroke-width=".558"/></g></g></g></g></svg>